<svg xmlns="http://www.w3.org/2000/svg" id="a" width="1080" height="1080" viewBox="0 0 1080 1080"><polygon points="714.5 588.6 618.7 588.6 518.1 420.6 588.3 378.4 714.5 588.6" fill="#acacac"></polygon><polygon points="584.4 588.6 488.6 588.6 432.3 495.6 503.5 453.1 584.4 588.6" fill="#acacac"></polygon><path d="M477.9,589.2v110h-19.5v-4.3c-2.4.8-4.4,2.4-6.7,3.3-23,9.3-49.7-1.9-57.8-25.5-11.3-33.1,17.8-64.5,51.7-56.5,4.5,1.1,8.4,3.6,12.8,5.2v-32.2h19.5ZM432.2,634.3c-31,3.4-26.7,51.9,6.5,47.8,29.2-3.6,25.3-51.2-6.5-47.8Z" fill="#acacac"></path><path d="M604.4,589.2v110h-19.5v-4.3c-2.4.8-4.4,2.4-6.7,3.3-32.7,13.2-66.2-14.5-59.3-48.9,4.8-24.3,29.4-38.7,53.2-33.1,4.5,1.1,8.4,3.6,12.8,5.2v-32.2h19.5ZM558.7,634.3c-31,3.4-26.7,51.9,6.5,47.8,29.2-3.6,25.2-51.2-6.5-47.8Z" fill="#acacac"></path><path d="M363.6,699.2l-.3-4.3c-20.6,13-48.5,6.3-60.6-14.8-19.3-33.5,10.7-72.8,48.1-63.9,4.5,1.1,8.4,3.6,12.8,5.2v-4.3h20.1v82h-20.1ZM337.3,634.3c-28,3-27.7,45.1-.2,47.8,35.6,3.5,34.8-51.6.2-47.8Z" fill="#acacac"></path><path d="M678.6,699.2l-.3-4.3c-23.5,15.4-57.1,2.8-64.6-24.2-10.3-36.7,25.6-67.1,60.3-51.7,3.6,1.6,5.2,5.3,4.6-1.9h20.1v82h-20.1ZM672.3,675.3c9.4-9.4,8.7-26.8-1.6-35.3-13.2-11-33.5-5.1-38.5,11.4-7.2,23.7,22.5,41.5,40.1,24Z" fill="#acacac"></path><path d="M780.8,640.9h-21.3c-.3-10.7-13.1-12.3-21.3-10.1-4.9,1.3-9.6,7-4.8,10.9,6.4,5.3,27.3,6.9,36.7,11.4,17.5,8.2,17.2,31.4,1.8,41.1-19,12-64.8,8.1-64-21.8h21.9c-1.1,13.5,24.8,14.7,30.4,7.6,4.3-5.3-.2-8.8-5.1-10.8-13.2-5.3-41.3-4.7-44-23.4-2.7-18.6,10.4-30.6,28.1-31.8,19-1.3,41.7,3.6,41.7,26.8Z" fill="#acacac"></path><polygon points="357.5 588.6 347.2 570.4 418 528.4 454.2 588.6 357.5 588.6" fill="#acacac"></polygon><rect x="488.3" y="614.7" width="21.9" height="84.5" fill="#acacac"></rect><rect x="488.3" y="589.2" width="21.9" height="18.8" fill="#acacac"></rect><path d="M764.2,579.6c17.7-3,20.2,22.1,5.8,24.6-18.5,3.2-20.5-22.1-5.8-24.6ZM764.8,581.4c-13.1,2.2-10.9,23.6,4.6,21,12.5-2.1,10.1-23.4-4.6-21Z" fill="#acacac"></path><path d="M761.3,585.6c6.3-1.1,15.5,1.4,7.3,7.6l3.6,5.5-2.3.2c-2.1-6-8.1-9.5-6.8.1h-1.8v-13.4ZM763.1,587.4c-1.6,8.3,9.4,2.9,5.5.3l-5.5-.3Z" fill="#acacac"></path></svg>