<svg xmlns="http://www.w3.org/2000/svg" id="a" width="1080" height="1080" viewBox="0 0 1080 1080"><path d="M530.7,336.6c157.5-6.8,263.8,160.7,188.6,300.3-71.4,132.6-258.5,144.2-345.7,21.1-93.2-131.5-3.1-314.4,157-321.4ZM533.7,358.3c-144.2,5.2-226.3,169.2-141.8,287.5,81.2,113.8,255.6,96.6,313.6-30.2,56-122.6-37.6-262.1-171.7-257.3Z" fill="#acacac"></path><path d="M386.6,496.2h42.4c16.8,1.4,30.7,10.9,37.5,26.3.2.4-.3.8.7.6l45-35.4h1.3s16,13,16,13l-41.7,33.1,8,6.2,42.2-32.8,17.1,13-42.1,33.2,6.1,5.2,1.9,1.1,42.3-32.6v-30.8l30.4.4v61.7h30.4v25.6h-60.8v-30.4l-50.6,39.5-46-36c-5.2,11.9-15.8,21.5-28.5,25s-5.6,1.5-6.7,1.5h-44.9v-87.3ZM415.7,558.8h9.3c18.2,0,23.1-27.8,7.3-35.5-3.5-1.7-11.3-2.8-15.1-2.3-.6,0-1.1,0-1.5.7v37.1Z" fill="#acacac"></path><polygon points="662.8 496.7 662.8 558.1 663.5 558.8 693.2 558.8 693.2 584 632.4 584 632.4 496.7 662.8 496.7" fill="#acacac"></polygon></svg>