<svg xmlns="http://www.w3.org/2000/svg" id="Capa_1" data-name="Capa 1" viewBox="0 0 1080 1080"><defs><style>      .cls-1 {        fill: #acacac;      }    </style></defs><path class="cls-1" d="M423.04,644.99c-.08,0-.7-.45-1.49-.47-4.05-.12-8.13.15-12.17.03l-5.72-209.13h59.69l.66.66v25.1l-.66.66h-28.42v63.4h21.59v24.21h-21.59v95.54c-3.95-.07-7.94.1-11.89,0Z"></path><path class="cls-1" d="M604.98,642.35h-19.6l-3.74-93.78h-32.6l-.44,93.78h-25.11l-2.2-206.48h60.13c14.34,32.27,20.42,67.63,22.68,102.81,2.01,31.23,2,62.95.87,94.19-.11,3.15.12,6.34.02,9.48ZM562.47,460.08h-14.76v65.16l33.04.88c-3.66-22.46-5.14-46.74-18.28-66.04Z"></path><polygon class="cls-1" points="676.35 437.62 676.35 457.88 654.76 457.88 651.24 644.55 623.48 644.55 627.45 458.32 604.54 458.32 604.54 438.28 605.2 437.62 676.35 437.62"></polygon><polygon class="cls-1" points="505.42 643.67 479.2 643.67 476.78 436.3 503.43 436.3 505.42 643.67"></polygon></svg>