<svg xmlns="http://www.w3.org/2000/svg" id="Capa_1" data-name="Capa 1" viewBox="0 0 1080 1080"><defs><style>      .cls-1 {        fill: #acacac;      }      .cls-2 {        fill: #ddd;      }    </style></defs><path class="cls-1" d="M268.95,427.4c69,3.86,164.42,40.37,151.72,125.46-19.43,130.13-297.09,130.34-320.48,3.86-16.2-87.6,80.63-125.56,151.54-129.32h17.23ZM148.37,465.79c-1,1.46,11.75,5.09,13.17,5.54,8.99,2.82,23.78,7.41,32.9,7.64,5.09.13,28.2-4.57,33.21-6.38,5.36-1.93,10.22-7.01,17.02-9.29,40.58-13.62,61.98,15.76,98.74,13.58,3.84-.23,30.96-5.44,30.9-8.57-65.47-43.98-158.94-43.08-225.94-2.51ZM413.82,521.28c-3.24-19.19-15.6-34.96-30.01-47.27-18.09,7.83-37.75,12.6-57.49,9.82-24.31-3.42-40.21-18.72-66.87-15.92-22.66,2.38-36.03,20.28-50.27,35.74-.74,1.75,4.55,3.31,5.63,3.46,16.63,2.3,21.64-8.14,33.57-15.91,16.1-10.48,23.49-9.37,38.74,1.41l59.35,50.62c21.7-9.39,44.34-16.54,67.37-21.97ZM217.26,482.95c-26.92,9.79-52.88-2.83-78.38-10.91-15.43,11.73-28.63,28.8-32.06,48.26,18.74,4.06,37.46,8.71,55.08,16.31,3.12,1.35,10.53,6.29,12.56,6.78,2.73.66,7.81-6.38,17.77-2.67,2.26.84,4.76,3.4,6.52,3.68,2.21.35,9.03-2.76,14.91-1.81,6.49,1.05,10.02,7.5,11.38,7.92,1.82.57,3.91-.98,5.81-.84,10.44.78,18.16,8.33,16.85,19.07,15.02.85,22.06,13.09,18.32,27.17,6.05,2.61,14.03,5.18,19.11-.37,0-1-12.72-12.63-13.66-14.65s-.68-2.73,1.04-4.04c10.01,3.14,15.51,19.21,26.89,15.71,16.8-5.18-13.03-23.13-12.21-30.85,3.56-3.4,18.68,15.02,21.78,17.16,8.81,6.08,22.91-2.18,14.69-13.63-3.92-5.47-18.72-16.31-20.77-20.71-.73-1.57-.51-3.76,1.04-4.04,2.76-.49,23.86,20.89,28.1,23.47,10.17,3.58,18.67-5.33,11.44-14.43-17.72-14.17-33.99-30.26-51.75-44.36-9.65-7.67-18.43-17.18-31.57-12.33-16.96,6.25-31.13,31.82-53.37,18.22-14.31-8.75,7.9-19.32,10.49-28.13ZM188.78,572.94c-7.56.31-16.22-3.65-18.46-11.4-1.14-3.95-.08-7.13-.68-10.44-.49-2.7-10.25-6.75-13.21-8.04-16.01-6.98-33.72-10.51-50.62-14.67-1.02,29.39,16.26,53.08,39.19,69.49,59.08,42.28,158.25,43.94,220.12,6.67,25.95-15.63,50.53-41.77,48.71-74.15l-60.8,18.18c4.81,14.5-4.4,24.94-19.24,24.23.92,7.65-6.52,13.68-13.36,15.46-2.26.59-7.12.45-7.77.85-.24.15-1.09,3.16-2.17,4.4-3.15,3.59-7.89,6.97-12.79,7.51-2.44.27-5.02-.81-6.06-.66-.55.08-4.26,4.93-9.09,5.7-9.12,1.45-14.98-2.97-20.22-2.87-2.68.05-5.95,3.37-9.16,3.87-6,.94-13.45.04-18.19-3.96-1.75-1.47-3.24-4.97-4.53-5.59-3.55-1.69-8.8,0-14.54-3.68-2.57-1.65-5.55-6.47-5.94-6.69-1.27-.72-4.97,0-7.16-.45-6.76-1.4-13.01-6.87-14.03-13.78ZM195.99,556.67c.27-5.27-3.32-9.96-8.6-10.2-14.66-.66-12.84,21.4,1.79,18.07,2.39-.54,3.36-2.93,5.78-2.82-.37,6.46.25,12.98,6.54,16.2s8.05.22,13.72-1.05c-.92,8.05,5.73,13.69,13.66,12.11,2.67-.53,3.49-3.79,6.6-3.02.14,10.25,8.47,17.04,18.26,12.63,10.11-4.56,7.84-20.3-1.74-22.51-3.42-.79-11.87,1.77-12.43-.78,4.53-8.61,1.32-19.45-9.64-18.69-3.71.26-5.91,3.32-9.64,3.1.5-9.86-9.76-13.57-17.58-8.94-2.81,1.67-3.1,3.65-4.63,5.26-.81.86-.71.91-2.11.65Z"></path><path class="cls-1" d="M983.31,486.98v10.1c-3.43,13.96-9.66,24.9-24.52,28.58-31.13,7.71-53.71-18.2-43.14-48.05,9.06-25.6,46.28-28.25,61.42-7.12l6.25,16.49ZM943.53,471.06c-15.45,2.83-16.02,36.99-.57,41.49,10.41,3.03,19.59-3.62,21.02-14.05,2.05-14.97-2.06-30.81-20.45-27.44Z"></path><path class="cls-1" d="M570.91,526.37c-6.23-.13-15.94,1.71-17.74-6.03-2.56-10.96.89-27.34-.48-38.94-1.56-13.31-23.33-9.96-23.33-.99v45.95h-17.23v-46.96c0-4.33-7.81-7.57-11.66-7.57s-11.65,3.06-11.65,7.57v46.96h-17.23v-47.97c0-.4,2.1-6.63,2.53-7.58,7.59-16.88,33.45-16.88,47.45-8.23,15.13-9.24,42.16-7.62,47.62,12.45.41,1.52,1.7,8.31,1.7,9.41v41.91Z"></path><path class="cls-1" d="M671.22,536.47v29.29l7.57-6.09c44.46-20.22,55.19,61.78,14.11,66.58-53.23,6.22-35.89-46.65-38.88-80.16,3.19-6.54,9.78-10.01,17.2-9.62ZM683.12,572.04c-15.55,2.67-17.07,41.32,3.77,40.21,19.56-1.04,18.99-44.12-3.77-40.21Z"></path><path class="cls-1" d="M902.25,435.48v70.19c0,1.4-3.19,8.35-4.22,9.93-9.92,15.18-40.76,15.4-52.04,1.71-8.7-10.57-8.57-34.52-3.01-46.47,7.68-16.53,32.14-18.47,43.06-4.04v-23.73c4.05-4.62,10.03-7.38,16.21-7.57ZM866.49,473.06c-13.19,2.99-16.23,44.06,8.68,38.94,13.73-2.82,13.61-33.93,2.5-38.39-2.77-1.11-8.31-1.2-11.18-.55Z"></path><path class="cls-1" d="M644.88,496.07h-48.64c.26,13.15,10.83,20.49,23.29,15.64,6.25-2.43,6.56-7.56,7.11-7.56h16.21c-3.59,17.59-20.13,24.07-36.88,22.11-34.74-4.08-37.94-57.77-4.47-67.86,26.45-7.97,44.17,12.44,43.37,37.67ZM625.62,484.96c-.02-11.44-9.36-16.84-19.99-13.36-4.56,1.49-11.19,8.88-7.87,13.36h27.87Z"></path><path class="cls-1" d="M838.41,596.05h-47.62c-2.41,16.14,16.28,22.29,27.41,12.67,1.02-.88,3.04-4.59,3.5-4.59h14.69c-3.47,20.66-27.12,26.82-44.85,19.96-27.61-10.69-25.58-55.84,2.06-65.12,26.62-8.94,46.08,10.99,44.81,37.09ZM819.16,584.94c.31-19.32-28.85-18.89-28.37,0h28.37Z"></path><path class="cls-1" d="M789.78,478.9h-14.69c-3.32,0,.79-11.09,2.07-13.08,8.5-13.16,43.55-12.64,50.33,1.25,2.67,5.48,2.39,26.69,1.85,33.58-1.77,22.38-24.7,30.77-44.18,24.77-13.66-4.21-17.92-23.88-8.54-33.89,8.51-9.09,32.28-7.18,34.96-12.63,5.1-10.37-21.64-11.84-21.79,0ZM808.68,508.86c4.61-4.57,3.29-10.92,3.37-16.83-6.18,3.41-20.3,2.09-22.84,10.05-4,12.49,12.87,13.33,19.47,6.78Z"></path><path class="cls-1" d="M764.44,481.93h-17.73c-3.32-5.75-3.28-10.19-11.12-11.13-25.27-3.02-23.93,40.81-5.09,42.48,10.48.93,13.78-5.93,17.22-14.19h16.72c-2.51,35.93-57.48,37.09-65,3.69-2.38-10.56-.96-24.36,5.39-33.3,15.15-21.35,56.78-16.14,59.61,12.45Z"></path><path class="cls-1" d="M602.32,536.47v89.88h-17.23v-80.29c0-4.67,12.2-11.89,17.23-9.59Z"></path><path class="cls-1" d="M693.51,456.68v18.18c-6.51-.11-13.58-.82-18.25,4.53-.54.61-3.03,4.77-3.03,5.06v41.91h-18.24v-36.86c0-1.17,1.27-7.78,1.66-9.45,4.44-18.66,20.24-23.91,37.86-23.37Z"></path><path class="cls-1" d="M767.48,557.67v17.17c-7.33-.15-16.11-.56-19.82,7.01-.62,1.25-2.47,6.7-2.47,7.64v36.86h-17.23v-39.89c0-11.34,12.73-28.78,24.83-28.78h14.69Z"></path><rect class="cls-1" x="620.56" y="559.69" width="17.23" height="66.65"></rect><rect class="cls-1" x="620.56" y="536.47" width="17.23" height="16.16"></rect><path class="cls-2" d="M188.78,572.94c1.01,6.91,7.26,12.38,14.03,13.78,2.19.45,5.89-.26,7.16.45.39.22,3.37,5.05,5.94,6.69,5.75,3.67,11,1.99,14.54,3.68,1.29.61,2.78,4.11,4.53,5.59,4.74,3.99,12.2,4.9,18.19,3.96,3.21-.5,6.48-3.82,9.16-3.87,5.24-.1,11.11,4.32,20.22,2.87,4.83-.77,8.55-5.62,9.09-5.7,1.04-.15,3.62.93,6.06.66,4.89-.54,9.64-3.92,12.79-7.51,1.08-1.24,1.93-4.25,2.17-4.4.65-.4,5.51-.26,7.77-.85,6.84-1.78,14.28-7.81,13.36-15.46,14.84.7,24.05-9.73,19.24-24.23l60.8-18.18c1.82,32.38-22.76,58.51-48.71,74.15-61.88,37.27-161.04,35.61-220.12-6.67-22.93-16.41-40.21-40.1-39.19-69.49,16.9,4.16,34.61,7.69,50.62,14.67,2.96,1.29,12.72,5.34,13.21,8.04.6,3.31-.47,6.49.68,10.44,2.24,7.75,10.89,11.71,18.46,11.4Z"></path><path class="cls-2" d="M148.37,465.79c67-40.57,160.47-41.46,225.94,2.51.06,3.13-27.06,8.34-30.9,8.57-36.76,2.18-58.16-27.2-98.74-13.58-6.8,2.28-11.66,7.36-17.02,9.29-5.01,1.81-28.11,6.51-33.21,6.38-9.12-.23-23.91-4.82-32.9-7.64-1.42-.45-14.18-4.08-13.17-5.54Z"></path></svg>