<svg xmlns="http://www.w3.org/2000/svg" id="a" width="1080" height="1080" viewBox="0 0 1080 1080"><path d="M377.4,487.1h-164.6s-33.1-.8-33.1,33.4c0,0-1.5,35.3,33.2,35.3h31.9s4.9-.3,4.9,3.4c0,0,1.2,5.3-4.7,5.3h-62.6c-.6,0-1.2.4-1.3,1,0,.1,0,.2,0,.4v25.8s0,1.3,1.2,1.3h67.4s30.9,2.8,32.3-32.3c0,0,1.8-35.3-32.3-35.3h-32.6s-4.2.6-4.2-5c0,0-.5-4.8,4.2-4.8h75.8c.9,0,1.6.8,1.6,1.7v73.7s0,1.6,1.4,1.7h28.4c.7-.2,1.2-.9,1.2-1.6v-73.5s-.2-2,1.4-2h27.7s7.3,0,11.3-6.1l11.3-22.4ZM691.9,591.2v-22.8c0-1.7-1.4-1.5-1.4-1.5h-40.5s-4.1.3-4.1-5.7v-72.6c0-1.8-1.4-1.6-1.4-1.6h-27c-1.5,0-1.4,1.8-1.4,1.8v86.6s.6,17.7,20,17.7h54.4c.9,0,1.6-.9,1.6-1.8M838.9,532.8l28.2-44.5c.5-.8,1.4-1.3,2.4-1.4h30.2c.4,0,.7.4.6.7,0,.1,0,.3-.1.4l-43.3,66.9c-4.3,5.7-3.9,11.2-3.9,11.2v25.2c0,.8-.5,1.5-1.3,1.6,0,0-.1,0-.2,0h-26.8c-.8,0-1.5-.6-1.5-1.4,0,0,0,0,0-.1v-26.1c0-3.4-1-6.7-2.8-9.5l-27.2-41.8c-.2-.4-.6-.6-1.1-.6h-56.7c-1.4,0-1.3,1.4-1.3,1.4v11s0,1.5,1.3,1.5h48.3s1.5,0,1.5,1.8v21.5s0,1.8-1.5,1.8h-47.9c-1.4,0-1.4,1.6-1.4,1.6v10.7s.2,1.6,1.4,1.6h52.6c.9,0,1.6.8,1.5,1.7,0,0,0,0,0,.1v22.9c0,0,.1,1.8-1.6,1.8h-73.7c-12.9-.3-13.2-14.5-13.2-14.5v-89.6s0-1.9,1.4-1.9h105.9c.6,0,1,.4,1.3.9l27.7,44.9s.5.9,1.3,0M493.3,591.4s0,1.6,1.4,1.6h26.6c.8,0,1.5-.7,1.4-1.5,0,0,0,0,0,0v-58.1s0-.6.4-.7c0,0,.3-.2.8.3l29.6,45.4c11.2,15.8,24.9,14.6,24.9,14.6h24.8v-104c0-2-1.6-1.9-1.6-1.9h-26.7c-1.4,0-1.4,1.9-1.4,1.9v60.2c0,.9-.5,1-.5,1-.5.1-.8-.5-.8-.5l-32.1-49.8c-4.7-7.7-12.9-12.5-21.9-12.8h-24.9v104.4ZM390.8,552c9.9-19.8,19.5-39.2,19.5-39.2,0,0,9.6,19.3,19.5,39.2h-39ZM435.5,499.3c-6.7-9.9-15.8-12.5-25.2-12.2-9.4-.3-17.9,1.9-25.2,12.2-16.9,32-48.6,93.7-48.6,93.7h33.6c1.3-2.4,4.4-8.5,8.3-16.3h33.4c5.4,0,10.5-1.8,14-8.6,1.9-3.8,4.4-8.6,6.1-11.9,8.3,16.5,16.3,32.5,18.6,36.8,15.4-.1,13.2-.1,33.6,0,0,0-32.3-64.2-48.6-93.7" fill="#acacac"></path></svg>